<?xml version="1.0" standalone="no"?>
<!DOCTYPE svg PUBLIC "-//W3C//DTD SVG 20010904//EN"
 "http://www.w3.org/TR/2001/REC-SVG-20010904/DTD/svg10.dtd">
<svg version="1.0" xmlns="http://www.w3.org/2000/svg"
 width="400.000000pt" height="400.000000pt" viewBox="0 0 400.000000 400.000000"
 preserveAspectRatio="xMidYMid meet">
<metadata>
Created by potrace 1.14, written by Peter Selinger 2001-2017
</metadata>
<g transform="translate(0.000000,400.000000) scale(0.100000,-0.100000)"
fill="#000000" stroke="none">
<path d="M2038 3916 c-1 -2 -59 -6 -128 -9 -69 -3 -134 -8 -145 -10 -11 -2
-42 -8 -70 -11 -27 -4 -95 -19 -150 -33 -545 -136 -1012 -521 -1259 -1036 -42
-87 -118 -296 -130 -357 -3 -14 -10 -50 -15 -80 -6 -30 -13 -66 -16 -80 -30
-152 -27 -472 5 -640 6 -30 13 -67 15 -81 3 -14 16 -66 30 -115 169 -582 608
-1056 1175 -1267 83 -31 226 -72 285 -82 113 -20 150 -25 215 -31 419 -36 833
64 1195 290 28 17 55 34 60 39 6 4 41 31 78 58 230 171 458 458 582 733 61
132 121 326 140 446 4 25 9 54 11 65 23 121 23 448 -1 565 -2 13 -7 41 -10 61
-3 20 -10 50 -15 68 -5 17 -9 32 -9 34 3 33 -73 250 -127 365 -101 214 -208
367 -379 538 -300 302 -649 479 -1085 548 -19 4 -78 9 -130 12 -52 3 -100 7
-107 9 -6 2 -13 2 -15 1z"/>
</g>
</svg>
